<svg version="1.0" xmlns="http://www.w3.org/2000/svg"
 width="50.000000pt" height="41.000000pt" viewBox="0 0 50.000000 41.000000"
 preserveAspectRatio="xMidYMid meet">

<g transform="translate(0.000000,41.000000) scale(0.100000,-0.100000)"
fill="#000000" stroke="none">
<path d="M235 366 c-66 -19 -139 -39 -161 -45 l-41 -11 5 -138 c3 -84 9 -140
16 -144 17 -12 316 -10 316 2 0 6 -58 10 -155 10 l-155 0 0 100 0 100 200 0
200 0 0 -100 0 -100 -25 0 c-14 0 -25 -4 -25 -10 0 -14 43 -13 58 2 19 19 16
197 -3 219 -9 9 -24 45 -33 80 -16 60 -19 64 -47 66 -17 1 -84 -13 -150 -31z
m165 9 c0 -13 -17 -20 -103 -41 -28 -6 -47 -24 -27 -24 7 0 36 7 66 16 31 9
62 13 70 10 16 -6 19 -36 4 -36 -5 0 -10 -4 -10 -10 0 -5 7 -7 15 -4 9 4 15 0
15 -10 0 -13 -10 -16 -47 -15 -27 1 -39 3 -28 6 24 6 44 23 27 23 -6 0 -37 -7
-69 -15 -31 -8 -93 -15 -138 -14 l-80 0 60 16 c33 8 64 19 69 24 16 14 -13 11
-93 -11 -50 -14 -77 -18 -84 -11 -13 13 -11 14 181 67 184 50 172 48 172 29z"/>
<path d="M205 190 c-42 -47 -8 -120 55 -120 33 0 70 40 70 76 0 57 -86 87
-125 44z m83 -6 c24 -17 30 -62 10 -82 -29 -29 -98 -1 -98 40 0 21 34 58 53
58 7 0 23 -7 35 -16z"/>
<path d="M253 173 c-15 -5 -17 -33 -3 -33 6 0 10 -4 10 -10 0 -5 -8 -7 -17 -4
-17 5 -17 5 0 -6 23 -15 36 -5 33 25 -3 30 -7 34 -23 28z"/>
</g>
</svg>


